# 3ds Max Wavefront OBJ Exporter v0.97b - (c)2007 guruware
# File Created: 14.02.2019 22:32:05

mtllib Coin.mtl

#
# object Cylinder001
#

v  5.5667 -1.0587 -8.1772
v  5.1581 -2.0452 -8.1772
v  4.5081 -2.8923 -8.1772
v  3.6609 -3.5424 -8.1772
v  2.6744 -3.9510 -8.1772
v  1.6157 -4.0904 -8.1772
v  0.5571 -3.9510 -8.1772
v  -0.4295 -3.5424 -8.1772
v  -1.2766 -2.8923 -8.1772
v  -1.9267 -2.0452 -8.1772
v  -2.3353 -1.0587 -8.1772
v  -2.4747 0.0000 -8.1772
v  -2.3353 1.0587 -8.1772
v  -1.9266 2.0452 -8.1772
v  -1.2766 2.8923 -8.1772
v  -0.4295 3.5424 -8.1772
v  0.5571 3.9510 -8.1772
v  1.6157 4.0904 -8.1772
v  2.6744 3.9510 -8.1772
v  3.6609 3.5424 -8.1772
v  4.5081 2.8923 -8.1772
v  5.1581 2.0452 -8.1772
v  5.5667 1.0587 -8.1772
v  5.7061 0.0000 -8.1772
v  6.6157 0.0000 -8.3272
v  6.4454 1.2941 -8.3272
v  6.4454 1.2941 -7.3272
v  6.6157 -0.0000 -7.3272
v  5.9459 2.5000 -8.3272
v  5.9459 2.5000 -7.3272
v  5.1513 3.5355 -8.3272
v  5.1513 3.5355 -7.3272
v  4.1157 4.3301 -8.3272
v  4.1157 4.3301 -7.3272
v  2.9098 4.8296 -8.3272
v  2.9098 4.8296 -7.3272
v  1.6157 5.0000 -8.3272
v  1.6157 5.0000 -7.3272
v  0.3216 4.8296 -8.3272
v  0.3216 4.8296 -7.3272
v  -0.8843 4.3301 -8.3272
v  -0.8843 4.3301 -7.3272
v  -1.9198 3.5355 -8.3272
v  -1.9198 3.5355 -7.3272
v  -2.7144 2.5000 -8.3272
v  -2.7144 2.5000 -7.3272
v  -3.2139 1.2941 -8.3272
v  -3.2139 1.2941 -7.3272
v  -3.3843 0.0000 -8.3272
v  -3.3843 0.0000 -7.3272
v  -3.2139 -1.2941 -8.3272
v  -3.2139 -1.2941 -7.3272
v  -2.7144 -2.5000 -8.3272
v  -2.7144 -2.5000 -7.3272
v  -1.9198 -3.5355 -8.3272
v  -1.9198 -3.5355 -7.3272
v  -0.8843 -4.3301 -8.3272
v  -0.8843 -4.3301 -7.3272
v  0.3216 -4.8296 -8.3272
v  0.3216 -4.8296 -7.3272
v  1.6157 -5.0000 -8.3272
v  1.6157 -5.0000 -7.3272
v  2.9098 -4.8296 -8.3272
v  2.9098 -4.8296 -7.3272
v  4.1157 -4.3301 -8.3272
v  4.1157 -4.3301 -7.3272
v  5.1513 -3.5355 -8.3272
v  5.1513 -3.5355 -7.3272
v  5.9459 -2.5000 -8.3272
v  5.9459 -2.5000 -7.3272
v  6.4454 -1.2941 -8.3272
v  6.4454 -1.2941 -7.3272
v  5.5667 -1.0587 -7.4772
v  5.7061 0.0000 -7.4772
v  5.5667 1.0587 -7.4772
v  5.1581 2.0452 -7.4772
v  4.5081 2.8923 -7.4772
v  3.6609 3.5424 -7.4772
v  2.6744 3.9510 -7.4772
v  1.6157 4.0904 -7.4772
v  0.5571 3.9510 -7.4772
v  -0.4295 3.5424 -7.4772
v  -1.2766 2.8923 -7.4772
v  -1.9266 2.0452 -7.4772
v  -2.3353 1.0587 -7.4772
v  -2.4747 0.0000 -7.4772
v  -2.3353 -1.0587 -7.4772
v  -1.9267 -2.0452 -7.4772
v  -1.2766 -2.8923 -7.4772
v  -0.4295 -3.5424 -7.4772
v  0.5571 -3.9510 -7.4772
v  1.6157 -4.0904 -7.4772
v  2.6744 -3.9510 -7.4772
v  3.6609 -3.5424 -7.4772
v  4.5081 -2.8923 -7.4772
v  5.1581 -2.0452 -7.4772
v  6.1609 0.0000 -8.3272
v  6.0060 1.1764 -8.3272
v  6.0060 -1.1764 -8.3272
v  5.5520 -2.2726 -8.3272
v  4.8297 -3.2139 -8.3272
v  3.8883 -3.9363 -8.3272
v  2.7921 -4.3903 -8.3272
v  1.6157 -4.5452 -8.3272
v  0.4393 -4.3903 -8.3272
v  -0.6569 -3.9362 -8.3272
v  -1.5982 -3.2139 -8.3272
v  -2.3205 -2.2726 -8.3272
v  -2.7746 -1.1764 -8.3272
v  -2.9295 0.0000 -8.3272
v  -2.7746 1.1764 -8.3272
v  -2.3205 2.2726 -8.3272
v  -1.5982 3.2139 -8.3272
v  -0.6569 3.9363 -8.3272
v  0.4393 4.3903 -8.3272
v  1.6157 4.5452 -8.3272
v  2.7921 4.3903 -8.3272
v  3.8883 3.9363 -8.3272
v  4.8297 3.2139 -8.3272
v  5.5520 2.2726 -8.3272
v  6.0060 1.1764 -7.3272
v  6.1609 0.0000 -7.3272
v  5.5520 2.2726 -7.3272
v  4.8297 3.2139 -7.3272
v  3.8883 3.9363 -7.3272
v  2.7921 4.3903 -7.3272
v  1.6157 4.5452 -7.3272
v  0.4393 4.3903 -7.3272
v  -0.6569 3.9363 -7.3272
v  -1.5982 3.2139 -7.3272
v  -2.3205 2.2726 -7.3272
v  -2.7746 1.1764 -7.3272
v  -2.9295 0.0000 -7.3272
v  -2.7746 -1.1764 -7.3272
v  -2.3205 -2.2726 -7.3272
v  -1.5982 -3.2139 -7.3272
v  -0.6569 -3.9362 -7.3272
v  0.4393 -4.3903 -7.3272
v  1.6157 -4.5452 -7.3272
v  2.7921 -4.3903 -7.3272
v  3.8883 -3.9363 -7.3272
v  4.8297 -3.2139 -7.3272
v  5.5520 -2.2726 -7.3272
v  6.0060 -1.1764 -7.3272
# 144 vertices

vn -0.1656 0.0444 -0.9852
vn -0.1485 0.0857 -0.9852
vn -0.1212 0.1212 -0.9852
vn -0.0857 0.1485 -0.9852
vn -0.0444 0.1656 -0.9852
vn 0.0000 0.1714 -0.9852
vn 0.0444 0.1656 -0.9852
vn 0.0857 0.1485 -0.9852
vn 0.1212 0.1212 -0.9852
vn 0.1485 0.0857 -0.9852
vn 0.1656 0.0444 -0.9852
vn 0.1714 -0.0000 -0.9852
vn 0.1656 -0.0444 -0.9852
vn 0.1485 -0.0857 -0.9852
vn 0.1212 -0.1212 -0.9852
vn 0.0857 -0.1485 -0.9852
vn 0.0444 -0.1656 -0.9852
vn -0.0000 -0.1714 -0.9852
vn -0.0444 -0.1656 -0.9852
vn -0.0857 -0.1485 -0.9852
vn -0.1212 -0.1212 -0.9852
vn -0.1485 -0.0857 -0.9852
vn -0.1656 -0.0444 -0.9852
vn -0.1714 0.0000 -0.9852
vn 0.7342 0.0000 -0.6789
vn 0.7092 0.1900 -0.6789
vn 0.7092 0.1900 0.6789
vn 0.7342 0.0000 0.6789
vn 0.6359 0.3671 -0.6789
vn 0.6359 0.3671 0.6789
vn 0.5192 0.5192 -0.6789
vn 0.5192 0.5192 0.6789
vn 0.3671 0.6359 -0.6789
vn 0.3671 0.6359 0.6789
vn 0.1900 0.7092 -0.6789
vn 0.1900 0.7092 0.6789
vn 0.0000 0.7343 -0.6789
vn 0.0000 0.7343 0.6789
vn -0.1900 0.7092 -0.6789
vn -0.1900 0.7092 0.6789
vn -0.3671 0.6358 -0.6789
vn -0.3671 0.6358 0.6789
vn -0.5192 0.5192 -0.6789
vn -0.5192 0.5192 0.6789
vn -0.6359 0.3671 -0.6789
vn -0.6359 0.3671 0.6789
vn -0.7092 0.1900 -0.6789
vn -0.7092 0.1900 0.6789
vn -0.7343 0.0000 -0.6789
vn -0.7343 0.0000 0.6789
vn -0.7092 -0.1900 -0.6789
vn -0.7092 -0.1900 0.6789
vn -0.6358 -0.3671 -0.6789
vn -0.6358 -0.3671 0.6789
vn -0.5192 -0.5192 -0.6789
vn -0.5192 -0.5192 0.6789
vn -0.3671 -0.6359 -0.6789
vn -0.3671 -0.6359 0.6789
vn -0.1900 -0.7092 -0.6789
vn -0.1900 -0.7092 0.6789
vn 0.0000 -0.7342 -0.6789
vn 0.0000 -0.7342 0.6789
vn 0.1900 -0.7092 -0.6789
vn 0.1900 -0.7092 0.6789
vn 0.3671 -0.6358 -0.6789
vn 0.3671 -0.6358 0.6789
vn 0.5192 -0.5192 -0.6789
vn 0.5192 -0.5192 0.6789
vn 0.6359 -0.3671 -0.6789
vn 0.6359 -0.3671 0.6789
vn 0.7092 -0.1900 -0.6789
vn 0.7092 -0.1900 0.6789
vn -0.1656 0.0444 0.9852
vn -0.1714 0.0000 0.9852
vn -0.1656 -0.0444 0.9852
vn -0.1485 -0.0857 0.9852
vn -0.1212 -0.1212 0.9852
vn -0.0857 -0.1485 0.9852
vn -0.0444 -0.1656 0.9852
vn -0.0000 -0.1714 0.9852
vn 0.0444 -0.1656 0.9852
vn 0.0857 -0.1485 0.9852
vn 0.1212 -0.1212 0.9852
vn 0.1485 -0.0857 0.9852
vn 0.1656 -0.0444 0.9852
vn 0.1714 -0.0000 0.9852
vn 0.1656 0.0444 0.9852
vn 0.1485 0.0857 0.9852
vn 0.1212 0.1212 0.9852
vn 0.0857 0.1485 0.9852
vn 0.0444 0.1656 0.9852
vn 0.0000 0.1714 0.9852
vn -0.0444 0.1656 0.9852
vn -0.0857 0.1485 0.9852
vn -0.1212 0.1212 0.9852
vn -0.1485 0.0857 0.9852
vn -0.1457 0.0000 -0.9893
vn -0.1407 -0.0377 -0.9893
vn -0.1407 0.0377 -0.9893
vn -0.1262 0.0728 -0.9893
vn -0.1030 0.1030 -0.9893
vn -0.0728 0.1262 -0.9893
vn -0.0377 0.1407 -0.9893
vn 0.0000 0.1457 -0.9893
vn 0.0377 0.1407 -0.9893
vn 0.0728 0.1262 -0.9893
vn 0.1030 0.1030 -0.9893
vn 0.1262 0.0728 -0.9893
vn 0.1407 0.0377 -0.9893
vn 0.1457 -0.0000 -0.9893
vn 0.1407 -0.0377 -0.9893
vn 0.1262 -0.0728 -0.9893
vn 0.1030 -0.1030 -0.9893
vn 0.0728 -0.1262 -0.9893
vn 0.0377 -0.1407 -0.9893
vn -0.0000 -0.1457 -0.9893
vn -0.0377 -0.1407 -0.9893
vn -0.0728 -0.1262 -0.9893
vn -0.1030 -0.1030 -0.9893
vn -0.1262 -0.0728 -0.9893
vn -0.1407 -0.0377 0.9893
vn -0.1457 -0.0000 0.9893
vn -0.1262 -0.0728 0.9893
vn -0.1030 -0.1030 0.9893
vn -0.0728 -0.1262 0.9893
vn -0.0377 -0.1407 0.9893
vn -0.0000 -0.1457 0.9893
vn 0.0377 -0.1407 0.9893
vn 0.0728 -0.1262 0.9893
vn 0.1030 -0.1030 0.9893
vn 0.1262 -0.0728 0.9893
vn 0.1407 -0.0377 0.9893
vn 0.1457 -0.0000 0.9893
vn 0.1407 0.0377 0.9893
vn 0.1262 0.0728 0.9893
vn 0.1030 0.1030 0.9893
vn 0.0728 0.1262 0.9893
vn 0.0377 0.1407 0.9893
vn 0.0000 0.1457 0.9893
vn -0.0377 0.1407 0.9893
vn -0.0728 0.1262 0.9893
vn -0.1030 0.1030 0.9893
vn -0.1262 0.0728 0.9893
vn -0.1407 0.0377 0.9893
# 144 vertex normals

vt 0.4994 0.7453 -0.0750
vt 0.5166 0.7036 -0.0750
vt 0.5441 0.6678 -0.0750
vt 0.5799 0.6404 -0.0750
vt 0.6216 0.6231 -0.0750
vt 0.6664 0.6172 -0.0750
vt 0.7111 0.6231 -0.0750
vt 0.7528 0.6404 -0.0750
vt 0.7886 0.6678 -0.0750
vt 0.8161 0.7036 -0.0750
vt 0.8333 0.7453 -0.0750
vt 0.8392 0.7901 0.0750
vt 0.8333 0.8348 -0.0750
vt 0.8161 0.8765 -0.0750
vt 0.7886 0.9123 -0.0750
vt 0.7528 0.9398 -0.0750
vt 0.7111 0.9570 -0.0750
vt 0.6664 0.9629 -0.0750
vt 0.6216 0.9570 -0.0750
vt 0.5799 0.9398 -0.0750
vt 0.5441 0.9123 -0.0750
vt 0.5166 0.8765 -0.0750
vt 0.4994 0.8348 -0.0750
vt 0.4935 0.7901 0.0750
vt 0.8094 0.4444 0.0000
vt 0.7516 0.4444 0.0000
vt 0.7516 0.3996 0.0000
vt 0.8094 0.3996 0.0000
vt 0.6976 0.4444 0.0000
vt 0.6976 0.3996 0.0000
vt 0.6513 0.4444 0.0000
vt 0.6513 0.3996 0.0000
vt 0.7585 0.5937 0.0000
vt 0.7122 0.5937 0.0000
vt 0.7122 0.5489 0.0000
vt 0.7585 0.5489 0.0000
vt 0.6583 0.5937 0.0000
vt 0.6583 0.5489 0.0000
vt 0.6004 0.5937 0.0000
vt 0.6004 0.5489 0.0000
vt 0.5425 0.5937 0.0000
vt 0.5425 0.5489 0.0000
vt 0.4886 0.5937 0.0000
vt 0.4886 0.5489 0.0000
vt 0.4423 0.5937 0.0000
vt 0.4423 0.5489 0.0000
vt 0.9676 0.5254 0.0000
vt 0.9212 0.5254 0.0000
vt 0.9212 0.4807 0.0000
vt 0.9676 0.4807 0.0000
vt 0.8673 0.5254 0.0000
vt 0.8673 0.4807 0.0000
vt 0.8094 0.5254 0.0000
vt 0.8094 0.4807 0.0000
vt 0.7516 0.5254 0.0000
vt 0.7516 0.4807 0.0000
vt 0.6976 0.5254 0.0000
vt 0.6976 0.4807 0.0000
vt 0.6513 0.5254 0.0000
vt 0.6513 0.4807 0.0000
vt 0.3533 0.5126 0.0000
vt 0.3070 0.5126 0.0000
vt 0.3070 0.4679 0.0000
vt 0.3533 0.4679 0.0000
vt 0.2531 0.5126 0.0000
vt 0.2531 0.4679 0.0000
vt 0.1952 0.5126 0.0000
vt 0.1952 0.4679 0.0000
vt 0.1373 0.5126 0.0000
vt 0.1373 0.4679 0.0000
vt 0.0834 0.5126 0.0000
vt 0.0834 0.4679 0.0000
vt 0.0371 0.5126 0.0000
vt 0.0371 0.4679 0.0000
vt 0.9676 0.4444 0.0000
vt 0.9212 0.4444 0.0000
vt 0.9212 0.3996 0.0000
vt 0.9676 0.3996 0.0000
vt 0.8673 0.4444 0.0000
vt 0.8673 0.3996 0.0000
vt 0.9741 0.1481 -0.4253
vt 0.9800 0.1929 0.4253
vt 0.9741 0.2376 -0.4253
vt 0.9568 0.2793 -0.4253
vt 0.9294 0.3151 -0.4253
vt 0.8936 0.3426 -0.4253
vt 0.8519 0.3599 -0.4253
vt 0.8071 0.3657 -0.4253
vt 0.7624 0.3599 -0.4253
vt 0.7207 0.3426 -0.4253
vt 0.6849 0.3151 -0.4253
vt 0.6574 0.2793 -0.4253
vt 0.6401 0.2376 -0.4253
vt 0.6343 0.1929 0.4253
vt 0.6401 0.1481 -0.4253
vt 0.6574 0.1064 -0.4253
vt 0.6849 0.0706 -0.4253
vt 0.7207 0.0432 -0.4253
vt 0.7624 0.0259 -0.4253
vt 0.8071 0.0200 -0.4253
vt 0.8519 0.0259 -0.4253
vt 0.8936 0.0432 -0.4253
vt 0.9294 0.0706 -0.4253
vt 0.9568 0.1064 -0.4253
vt 0.4183 0.8798 0.0000
vt 0.3794 0.9194 0.0000
vt 0.3675 0.9042 0.0000
vt 0.4029 0.8681 0.0000
vt 0.3315 0.9476 0.0000
vt 0.3240 0.9298 0.0000
vt 0.2780 0.9625 0.0000
vt 0.2753 0.9433 0.0000
vt 0.2224 0.9630 0.0000
vt 0.2248 0.9438 0.0000
vt 0.1686 0.9491 0.0000
vt 0.1759 0.9311 0.0000
vt 0.1202 0.9217 0.0000
vt 0.1319 0.9062 0.0000
vt 0.0806 0.8827 0.0000
vt 0.0959 0.8708 0.0000
vt 0.0524 0.8349 0.0000
vt 0.0702 0.8273 0.0000
vt 0.0375 0.7813 0.0000
vt 0.0567 0.7786 0.0000
vt 0.0371 0.7257 0.0000
vt 0.0563 0.7281 0.0000
vt 0.0510 0.6720 0.0000
vt 0.0689 0.6792 0.0000
vt 0.0783 0.6236 0.0000
vt 0.0938 0.6352 0.0000
vt 0.1173 0.5840 0.0000
vt 0.1292 0.5992 0.0000
vt 0.1652 0.5557 0.0000
vt 0.1727 0.5736 0.0000
vt 0.2187 0.5409 0.0000
vt 0.2214 0.5601 0.0000
vt 0.2743 0.5404 0.0000
vt 0.2719 0.5596 0.0000
vt 0.3281 0.5543 0.0000
vt 0.3208 0.5723 0.0000
vt 0.3764 0.5817 0.0000
vt 0.3648 0.5972 0.0000
vt 0.4161 0.6206 0.0000
vt 0.4008 0.6326 0.0000
vt 0.4443 0.6685 0.0000
vt 0.4265 0.6761 0.0000
vt 0.4591 0.7221 0.0000
vt 0.4400 0.7248 0.0000
vt 0.4596 0.7776 0.0000
vt 0.4404 0.7753 0.0000
vt 0.4457 0.8314 0.0000
vt 0.4278 0.8242 0.0000
vt 0.0205 0.2017 0.0000
vt 0.0353 0.1481 0.0000
vt 0.0532 0.1557 0.0000
vt 0.0397 0.2043 0.0000
vt 0.0635 0.1002 0.0000
vt 0.0788 0.1121 0.0000
vt 0.1032 0.0613 0.0000
vt 0.1148 0.0767 0.0000
vt 0.1515 0.0339 0.0000
vt 0.1588 0.0519 0.0000
vt 0.2053 0.0200 0.0000
vt 0.2077 0.0392 0.0000
vt 0.2609 0.0205 0.0000
vt 0.2582 0.0397 0.0000
vt 0.3145 0.0353 0.0000
vt 0.3069 0.0532 0.0000
vt 0.3623 0.0635 0.0000
vt 0.3504 0.0788 0.0000
vt 0.4013 0.1032 0.0000
vt 0.3858 0.1148 0.0000
vt 0.4286 0.1515 0.0000
vt 0.4107 0.1588 0.0000
vt 0.4426 0.2053 0.0000
vt 0.4233 0.2077 0.0000
vt 0.4421 0.2609 0.0000
vt 0.4229 0.2582 0.0000
vt 0.4272 0.3145 0.0000
vt 0.4094 0.3069 0.0000
vt 0.3990 0.3623 0.0000
vt 0.3838 0.3504 0.0000
vt 0.3594 0.4013 0.0000
vt 0.3477 0.3858 0.0000
vt 0.3110 0.4286 0.0000
vt 0.3038 0.4107 0.0000
vt 0.2572 0.4426 0.0000
vt 0.2549 0.4233 0.0000
vt 0.2017 0.4421 0.0000
vt 0.2043 0.4229 0.0000
vt 0.1481 0.4272 0.0000
vt 0.1557 0.4094 0.0000
vt 0.1002 0.3990 0.0000
vt 0.1121 0.3838 0.0000
vt 0.0613 0.3594 0.0000
vt 0.0767 0.3477 0.0000
vt 0.0339 0.3110 0.0000
vt 0.0519 0.3038 0.0000
vt 0.0200 0.2572 0.0000
vt 0.0392 0.2549 0.0000
vt 0.3556 0.8889 0.0000
vt 0.3874 0.8565 0.0000
vt 0.3164 0.9120 0.0000
vt 0.2726 0.9241 0.0000
vt 0.2271 0.9245 0.0000
vt 0.1831 0.9132 0.0000
vt 0.1435 0.8908 0.0000
vt 0.1111 0.8589 0.0000
vt 0.0880 0.8197 0.0000
vt 0.0759 0.7759 0.0000
vt 0.0755 0.7305 0.0000
vt 0.0869 0.6865 0.0000
vt 0.1093 0.6469 0.0000
vt 0.1411 0.6145 0.0000
vt 0.1803 0.5914 0.0000
vt 0.2241 0.5792 0.0000
vt 0.2696 0.5788 0.0000
vt 0.3136 0.5902 0.0000
vt 0.3531 0.6126 0.0000
vt 0.3856 0.6445 0.0000
vt 0.4086 0.6836 0.0000
vt 0.4208 0.7275 0.0000
vt 0.4212 0.7729 0.0000
vt 0.4098 0.8169 0.0000
vt 0.0710 0.1632 0.0000
vt 0.0588 0.2070 0.0000
vt 0.0941 0.1241 0.0000
vt 0.1265 0.0922 0.0000
vt 0.1660 0.0698 0.0000
vt 0.2101 0.0584 0.0000
vt 0.2555 0.0588 0.0000
vt 0.2993 0.0710 0.0000
vt 0.3385 0.0941 0.0000
vt 0.3704 0.1265 0.0000
vt 0.3927 0.1660 0.0000
vt 0.4041 0.2101 0.0000
vt 0.4037 0.2555 0.0000
vt 0.3916 0.2993 0.0000
vt 0.3685 0.3385 0.0000
vt 0.3361 0.3704 0.0000
vt 0.2965 0.3927 0.0000
vt 0.2525 0.4041 0.0000
vt 0.2070 0.4037 0.0000
vt 0.1632 0.3916 0.0000
vt 0.1241 0.3685 0.0000
vt 0.0922 0.3361 0.0000
vt 0.0698 0.2965 0.0000
vt 0.0584 0.2525 0.0000
# 248 texture coords

o Cylinder001
g Cylinder001
usemtl Material__44
s 1
f 1/1/1 2/2/2 3/3/3 4/4/4 5/5/5 6/6/6 7/7/7 8/8/8 9/9/9 10/10/10 11/11/11 12/12/12 13/13/13 14/14/14 15/15/15 16/16/16 17/17/17 18/18/18 19/19/19 20/20/20 21/21/21 22/22/22 23/23/23 24/24/24 
s 8
f 25/25/25 26/26/26 27/27/27 28/28/28 
f 26/26/26 29/29/29 30/30/30 27/27/27 
f 29/29/29 31/31/31 32/32/32 30/30/30 
f 31/33/31 33/34/33 34/35/34 32/36/32 
f 33/34/33 35/37/35 36/38/36 34/35/34 
f 35/37/35 37/39/37 38/40/38 36/38/36 
f 37/39/37 39/41/39 40/42/40 38/40/38 
f 39/41/39 41/43/41 42/44/42 40/42/40 
f 41/43/41 43/45/43 44/46/44 42/44/42 
f 43/47/43 45/48/45 46/49/46 44/50/44 
f 45/48/45 47/51/47 48/52/48 46/49/46 
f 47/51/47 49/53/49 50/54/50 48/52/48 
f 49/53/49 51/55/51 52/56/52 50/54/50 
f 51/55/51 53/57/53 54/58/54 52/56/52 
f 53/57/53 55/59/55 56/60/56 54/58/54 
f 55/61/55 57/62/57 58/63/58 56/64/56 
f 57/62/57 59/65/59 60/66/60 58/63/58 
f 59/65/59 61/67/61 62/68/62 60/66/60 
f 61/67/61 63/69/63 64/70/64 62/68/62 
f 63/69/63 65/71/65 66/72/66 64/70/64 
f 65/71/65 67/73/67 68/74/68 66/72/66 
f 67/75/67 69/76/69 70/77/70 68/78/68 
f 69/76/69 71/79/71 72/80/72 70/77/70 
f 71/79/71 25/25/25 28/28/28 72/80/72 
s 1
f 73/81/73 74/82/74 75/83/75 76/84/76 77/85/77 78/86/78 79/87/79 80/88/80 81/89/81 82/90/82 83/91/83 84/92/84 85/93/85 86/94/86 87/95/87 88/96/88 89/97/89 90/98/90 91/99/91 92/100/92 93/101/93 94/102/94 95/103/95 96/104/96 
s off
f 26/105/26 25/106/25 97/107/97 98/108/98 
f 25/106/25 71/109/71 99/110/99 97/107/97 
f 71/109/71 69/111/69 100/112/100 99/110/99 
f 69/111/69 67/113/67 101/114/101 100/112/100 
f 67/113/67 65/115/65 102/116/102 101/114/101 
f 65/115/65 63/117/63 103/118/103 102/116/102 
f 63/117/63 61/119/61 104/120/104 103/118/103 
f 61/119/61 59/121/59 105/122/105 104/120/104 
f 59/121/59 57/123/57 106/124/106 105/122/105 
f 57/123/57 55/125/55 107/126/107 106/124/106 
f 55/125/55 53/127/53 108/128/108 107/126/107 
f 53/127/53 51/129/51 109/130/109 108/128/108 
f 51/129/51 49/131/49 110/132/110 109/130/109 
f 49/131/49 47/133/47 111/134/111 110/132/110 
f 47/133/47 45/135/45 112/136/112 111/134/111 
f 45/135/45 43/137/43 113/138/113 112/136/112 
f 43/137/43 41/139/41 114/140/114 113/138/113 
f 41/139/41 39/141/39 115/142/115 114/140/114 
f 39/141/39 37/143/37 116/144/116 115/142/115 
f 37/143/37 35/145/35 117/146/117 116/144/116 
f 35/145/35 33/147/33 118/148/118 117/146/117 
f 33/147/33 31/149/31 119/150/119 118/148/118 
f 31/149/31 29/151/29 120/152/120 119/150/119 
f 29/151/29 26/105/26 98/108/98 120/152/120 
f 28/153/28 27/154/27 121/155/121 122/156/122 
f 27/154/27 30/157/30 123/158/123 121/155/121 
f 30/157/30 32/159/32 124/160/124 123/158/123 
f 32/159/32 34/161/34 125/162/125 124/160/124 
f 34/161/34 36/163/36 126/164/126 125/162/125 
f 36/163/36 38/165/38 127/166/127 126/164/126 
f 38/165/38 40/167/40 128/168/128 127/166/127 
f 40/167/40 42/169/42 129/170/129 128/168/128 
f 42/169/42 44/171/44 130/172/130 129/170/129 
f 44/171/44 46/173/46 131/174/131 130/172/130 
f 46/173/46 48/175/48 132/176/132 131/174/131 
f 48/175/48 50/177/50 133/178/133 132/176/132 
f 50/177/50 52/179/52 134/180/134 133/178/133 
f 52/179/52 54/181/54 135/182/135 134/180/134 
f 54/181/54 56/183/56 136/184/136 135/182/135 
f 56/183/56 58/185/58 137/186/137 136/184/136 
f 58/185/58 60/187/60 138/188/138 137/186/137 
f 60/187/60 62/189/62 139/190/139 138/188/138 
f 62/189/62 64/191/64 140/192/140 139/190/139 
f 64/191/64 66/193/66 141/194/141 140/192/140 
f 66/193/66 68/195/68 142/196/142 141/194/141 
f 68/195/68 70/197/70 143/198/143 142/196/142 
f 70/197/70 72/199/72 144/200/144 143/198/143 
f 72/199/72 28/153/28 122/156/122 144/200/144 
f 98/108/98 97/107/97 24/201/24 23/202/23 
f 97/107/97 99/110/99 1/203/1 24/201/24 
f 99/110/99 100/112/100 2/204/2 1/203/1 
f 100/112/100 101/114/101 3/205/3 2/204/2 
f 101/114/101 102/116/102 4/206/4 3/205/3 
f 102/116/102 103/118/103 5/207/5 4/206/4 
f 103/118/103 104/120/104 6/208/6 5/207/5 
f 104/120/104 105/122/105 7/209/7 6/208/6 
f 105/122/105 106/124/106 8/210/8 7/209/7 
f 106/124/106 107/126/107 9/211/9 8/210/8 
f 107/126/107 108/128/108 10/212/10 9/211/9 
f 108/128/108 109/130/109 11/213/11 10/212/10 
f 109/130/109 110/132/110 12/214/12 11/213/11 
f 110/132/110 111/134/111 13/215/13 12/214/12 
f 111/134/111 112/136/112 14/216/14 13/215/13 
f 112/136/112 113/138/113 15/217/15 14/216/14 
f 113/138/113 114/140/114 16/218/16 15/217/15 
f 114/140/114 115/142/115 17/219/17 16/218/16 
f 115/142/115 116/144/116 18/220/18 17/219/17 
f 116/144/116 117/146/117 19/221/19 18/220/18 
f 117/146/117 118/148/118 20/222/20 19/221/19 
f 118/148/118 119/150/119 21/223/21 20/222/20 
f 119/150/119 120/152/120 22/224/22 21/223/21 
f 120/152/120 98/108/98 23/202/23 22/224/22 
f 122/156/122 121/155/121 75/225/75 74/226/74 
f 121/155/121 123/158/123 76/227/76 75/225/75 
f 123/158/123 124/160/124 77/228/77 76/227/76 
f 124/160/124 125/162/125 78/229/78 77/228/77 
f 125/162/125 126/164/126 79/230/79 78/229/78 
f 126/164/126 127/166/127 80/231/80 79/230/79 
f 127/166/127 128/168/128 81/232/81 80/231/80 
f 128/168/128 129/170/129 82/233/82 81/232/81 
f 129/170/129 130/172/130 83/234/83 82/233/82 
f 130/172/130 131/174/131 84/235/84 83/234/83 
f 131/174/131 132/176/132 85/236/85 84/235/84 
f 132/176/132 133/178/133 86/237/86 85/236/85 
f 133/178/133 134/180/134 87/238/87 86/237/86 
f 134/180/134 135/182/135 88/239/88 87/238/87 
f 135/182/135 136/184/136 89/240/89 88/239/88 
f 136/184/136 137/186/137 90/241/90 89/240/89 
f 137/186/137 138/188/138 91/242/91 90/241/90 
f 138/188/138 139/190/139 92/243/92 91/242/91 
f 139/190/139 140/192/140 93/244/93 92/243/92 
f 140/192/140 141/194/141 94/245/94 93/244/93 
f 141/194/141 142/196/142 95/246/95 94/245/94 
f 142/196/142 143/198/143 96/247/96 95/246/95 
f 143/198/143 144/200/144 73/248/73 96/247/96 
f 144/200/144 122/156/122 74/226/74 73/248/73 
# 122 polygons

